{"title":"Henrys Crime 2010 SWESUB 720p BRRip XviD-ASPiRE","uid":6586118,"size":3201804288,"categoryP":"video","categoryS":"hd___movies","magnet":"?xt=urn:btih:27d016ae8c41ce3a38ae7d1d950ef8c55e9c6b3a&amp;dn=Henrys+Crime+2010+SWESUB+720p+BRRip+XviD-ASPiRE&amp;tr=udp%3A%2F%2Ftracker.openbittorrent.com%3A80&amp;tr=udp%3A%2F%2Fopen.demonii.com%3A1337&amp;tr=udp%3A%2F%2Ftracker.coppersurfer.tk%3A6969&amp;tr=udp%3A%2F%2Fexodus.desync.com%3A6969","seeders":0,"leechers":0,"uploader":"xASPiREx","files":-1,"time":1312620222,"description":"Henry's Crime 2010 SWESUB 720p BRRip XviD-ASPiRE\n &lt;a href=&quot;\nhttp://www.imdb.com/title/tt1220888/&quot; rel=&quot;nofollow&quot; target=&quot;_NEW&quot;&gt;\nhttp://www.imdb.com/title/tt1220888/&lt;/a&gt;\n\nHandling:\n\nHenry blir dÃƒÂ¶md fÃƒÂ¶r ett bankrÃƒÂ¥n han inte begÃƒÂ¥tt. NÃƒÂ¤r han slÃƒÂ¤pps frÃƒÂ¥n fÃƒÂ¤ngelset \nbestÃƒÂ¤mmer han sig fÃƒÂ¶r att han lika gÃƒÂ¤rna kan begÃƒÂ¥ brottet...\n\niNFO:\n\nGenre: Kriminalare, Drama\nRegi: Malcolm Venville\nMedverkande: Keanu Reeves, Vera Farmiga, James Caan\nProduktionsland: USA\nSprÃƒÂ¥k: Engelska\nText: Svenska\n\nGeneral:\nFormat                           : AVI\nFormat/Info                      : Audio Video Interleave\nFormat profile                   : OpenDML\nFile size                        : 2.98 GiB\nDuration                         : 1h 47mn\nOverall bit rate                 : 3 961 Kbps\n\nVideo:\nID                               : 0\nFormat                           : MPEG-4 Visual\nFormat profile                   : Advanced Simple@L5\nFormat settings, BVOP            : 1\nFormat settings, QPel            : No\nFormat settings, GMC             : No warppoints\nFormat settings, Matrix          : Default (H.263)\nMuxing mode                      : Packed bitstream\nCodec ID                         : XVID\nCodec ID/Hint                    : XviD\nDuration                         : 1h 47mn\nBit rate                         : 3 505 Kbps\nWidth                            : 1 280 pixels\nHeight                           : 536 pixels\nDisplay aspect ratio             : 2.35:1\nFrame rate                       : 23.976 fps\nColor space                      : YUV\nChroma subsampling               : 4:2:0\nBit depth                        : 8 bits\nScan type                        : Progressive\nCompression mode                 : Lossy\nBits/(Pixel*Frame)               : 0.213\nStream size                      : 2.64 GiB (88%)\nWriting library                  : XviD 62\n\nAudio:\nID                               : 1\nFormat                           : AC-3\nFormat/Info                      : Audio Coding 3\nMode extension                   : CM (complete main)\nCodec ID                         : 2000\nDuration                         : 1h 47mn\nBit rate mode                    : Constant\nBit rate                         : 448 Kbps\nChannel(s)                       : 6 channels\nChannel positions                : Front: L C R, Side: L R, LFE\nSampling rate                    : 48.0 KHz\nBit depth                        : 16 bits\nCompression mode                 : Lossy\nStream size                      : 345 MiB (11%)\nAlignment                        : Split accross interleaves\nInterleave, duration             : 64 ms (1.53 video frames)\nInterleave, preload duration     : 500 ms\n\nASPiRE","torrent":{"xt":"urn:btih:27d016ae8c41ce3a38ae7d1d950ef8c55e9c6b3a","amp;dn":"Henrys+Crime+2010+SWESUB+720p+BRRip+XviD-ASPiRE","amp;tr":["udp%3A%2F%2Ftracker.openbittorrent.com%3A80","udp%3A%2F%2Fopen.demonii.com%3A1337","udp%3A%2F%2Ftracker.coppersurfer.tk%3A6969","udp%3A%2F%2Fexodus.desync.com%3A6969"],"infoHash":"27d016ae8c41ce3a38ae7d1d950ef8c55e9c6b3a","infoHashBuffer":{"type":"Buffer","data":[39,208,22,174,140,65,206,58,56,174,125,29,149,14,248,197,94,156,107,58]},"announce":[],"urlList":[]}}